<?xml version="1.0" encoding="UTF-8" standalone="no"?>
<!DOCTYPE svg PUBLIC "-//W3C//DTD SVG 1.1//EN"
 "http://www.w3.org/Graphics/SVG/1.1/DTD/svg11.dtd">
<!-- Generated by graphviz version 2.38.0 (20140413.2041)
 -->
<!-- Title: G Pages: 1 -->
<svg width="301pt" height="582pt"
 viewBox="0.00 0.00 300.89 582.00" xmlns="http://www.w3.org/2000/svg" xmlns:xlink="http://www.w3.org/1999/xlink">
<g id="graph0" class="graph" transform="scale(1 1) rotate(0) translate(4 578)">
<title>G</title>
<polygon fill="white" stroke="none" points="-4,4 -4,-578 296.889,-578 296.889,4 -4,4"/>
<g id="clust1" class="cluster"><title>cluster_Global</title>
<path fill="none" stroke="gray" d="M196.889,-8C196.889,-8 272.889,-8 272.889,-8 278.889,-8 284.889,-14 284.889,-20 284.889,-20 284.889,-554 284.889,-554 284.889,-560 278.889,-566 272.889,-566 272.889,-566 196.889,-566 196.889,-566 190.889,-566 184.889,-560 184.889,-554 184.889,-554 184.889,-20 184.889,-20 184.889,-14 190.889,-8 196.889,-8"/>
<text text-anchor="middle" x="234.889" y="-553.2" font-family="Times New Roman,serif" font-size="11.00" fill="gray">Global</text>
</g>
<!-- \\ArrayClass -->
<g id="node1" class="node"><title>\\ArrayClass</title>
<polygon fill="none" stroke="black" points="276.889,-538 192.889,-538 192.889,-502 276.889,-502 276.889,-538"/>
<text text-anchor="middle" x="234.889" y="-517.2" font-family="Courier,monospace" font-size="11.00">ArrayClass</text>
</g>
<!-- \\ArrayAccess -->
<g id="node11" class="node"><title>\\ArrayAccess</title>
<ellipse fill="none" stroke="black" cx="60.4446" cy="-547" rx="60.3893" ry="18"/>
<text text-anchor="middle" x="60.4446" y="-543.3" font-family="Times New Roman,serif" font-size="14.00" fill="gray">\ArrayAccess</text>
</g>
<!-- \\ArrayClass&#45;&gt;\\ArrayAccess -->
<g id="edge1" class="edge"><title>\\ArrayClass&#45;&gt;\\ArrayAccess</title>
<path fill="none" stroke="black" stroke-dasharray="1,5" d="M192.584,-526.467C172.1,-529.674 146.924,-533.616 124.125,-537.186"/>
<polygon fill="none" stroke="black" points="123.521,-533.738 114.183,-538.743 124.604,-540.654 123.521,-533.738"/>
</g>
<!-- \\Countable -->
<g id="node12" class="node"><title>\\Countable</title>
<ellipse fill="none" stroke="black" cx="60.4446" cy="-493" rx="50.0912" ry="18"/>
<text text-anchor="middle" x="60.4446" y="-489.3" font-family="Times New Roman,serif" font-size="14.00" fill="gray">\Countable</text>
</g>
<!-- \\ArrayClass&#45;&gt;\\Countable -->
<g id="edge2" class="edge"><title>\\ArrayClass&#45;&gt;\\Countable</title>
<path fill="none" stroke="black" stroke-dasharray="1,5" d="M192.584,-513.533C169.815,-509.968 141.247,-505.495 116.593,-501.635"/>
<polygon fill="none" stroke="black" points="117.071,-498.167 106.65,-500.078 115.989,-505.083 117.071,-498.167"/>
</g>
<!-- \\Autoload -->
<g id="node2" class="node"><title>\\Autoload</title>
<polygon fill="none" stroke="black" points="270.389,-484 199.389,-484 199.389,-448 270.389,-448 270.389,-484"/>
<text text-anchor="middle" x="234.889" y="-463.2" font-family="Courier,monospace" font-size="11.00">Autoload</text>
</g>
<!-- \\Controller -->
<g id="node3" class="node"><title>\\Controller</title>
<polygon fill="none" stroke="black" points="276.889,-430 192.889,-430 192.889,-394 276.889,-394 276.889,-430"/>
<text text-anchor="middle" x="234.889" y="-409.2" font-family="Courier,monospace" font-size="11.00">Controller</text>
</g>
<!-- \\Cookie -->
<g id="node4" class="node"><title>\\Cookie</title>
<polygon fill="none" stroke="black" points="263.389,-376 206.389,-376 206.389,-340 263.389,-340 263.389,-376"/>
<text text-anchor="middle" x="234.889" y="-355.2" font-family="Courier,monospace" font-size="11.00">Cookie</text>
</g>
<!-- \\Database -->
<g id="node5" class="node"><title>\\Database</title>
<polygon fill="none" stroke="black" points="270.389,-322 199.389,-322 199.389,-286 270.389,-286 270.389,-322"/>
<text text-anchor="middle" x="234.889" y="-301.2" font-family="Courier,monospace" font-size="11.00">Database</text>
</g>
<!-- \\DB -->
<g id="node6" class="node"><title>\\DB</title>
<polygon fill="none" stroke="black" points="261.889,-268 207.889,-268 207.889,-232 261.889,-232 261.889,-268"/>
<text text-anchor="middle" x="234.889" y="-247.2" font-family="Courier,monospace" font-size="11.00">DB</text>
</g>
<!-- \\Input -->
<g id="node7" class="node"><title>\\Input</title>
<polygon fill="none" stroke="black" points="261.889,-214 207.889,-214 207.889,-178 261.889,-178 261.889,-214"/>
<text text-anchor="middle" x="234.889" y="-193.2" font-family="Courier,monospace" font-size="11.00">Input</text>
</g>
<!-- \\Router -->
<g id="node8" class="node"><title>\\Router</title>
<polygon fill="none" stroke="black" points="263.389,-160 206.389,-160 206.389,-124 263.389,-124 263.389,-160"/>
<text text-anchor="middle" x="234.889" y="-139.2" font-family="Courier,monospace" font-size="11.00">Router</text>
</g>
<!-- \\Session -->
<g id="node9" class="node"><title>\\Session</title>
<polygon fill="none" stroke="black" points="266.889,-106 202.889,-106 202.889,-70 266.889,-70 266.889,-106"/>
<text text-anchor="middle" x="234.889" y="-85.2" font-family="Courier,monospace" font-size="11.00">Session</text>
</g>
<!-- \\View -->
<g id="node10" class="node"><title>\\View</title>
<polygon fill="none" stroke="black" points="261.889,-52 207.889,-52 207.889,-16 261.889,-16 261.889,-52"/>
<text text-anchor="middle" x="234.889" y="-31.2" font-family="Courier,monospace" font-size="11.00">View</text>
</g>
</g>
</svg>
