<?xml version="1.0" encoding="UTF-8" standalone="no"?>
<!DOCTYPE svg PUBLIC "-//W3C//DTD SVG 1.1//EN"
 "http://www.w3.org/Graphics/SVG/1.1/DTD/svg11.dtd">
<!-- Generated by graphviz version 2.38.0 (20140413.2041)
 -->
<!-- Title: G Pages: 1 -->
<svg width="362pt" height="960pt"
 viewBox="0.00 0.00 361.89 960.00" xmlns="http://www.w3.org/2000/svg" xmlns:xlink="http://www.w3.org/1999/xlink">
<g id="graph0" class="graph" transform="scale(1 1) rotate(0) translate(4 956)">
<title>G</title>
<polygon fill="white" stroke="none" points="-4,4 -4,-956 357.889,-956 357.889,4 -4,4"/>
<g id="clust1" class="cluster"><title>cluster_Global</title>
<path fill="none" stroke="gray" d="M196.889,-8C196.889,-8 333.889,-8 333.889,-8 339.889,-8 345.889,-14 345.889,-20 345.889,-20 345.889,-932 345.889,-932 345.889,-938 339.889,-944 333.889,-944 333.889,-944 196.889,-944 196.889,-944 190.889,-944 184.889,-938 184.889,-932 184.889,-932 184.889,-20 184.889,-20 184.889,-14 190.889,-8 196.889,-8"/>
<text text-anchor="middle" x="265.389" y="-931.2" font-family="Times New Roman,serif" font-size="11.00" fill="gray">Global</text>
</g>
<!-- \\ArrayClass -->
<g id="node1" class="node"><title>\\ArrayClass</title>
<polygon fill="none" stroke="black" points="307.389,-808 223.389,-808 223.389,-772 307.389,-772 307.389,-808"/>
<text text-anchor="middle" x="265.389" y="-787.2" font-family="Courier,monospace" font-size="11.00">ArrayClass</text>
</g>
<!-- \\ArrayAccess -->
<g id="node18" class="node"><title>\\ArrayAccess</title>
<ellipse fill="none" stroke="black" cx="60.4446" cy="-884" rx="60.3893" ry="18"/>
<text text-anchor="middle" x="60.4446" y="-880.3" font-family="Times New Roman,serif" font-size="14.00" fill="gray">\ArrayAccess</text>
</g>
<!-- \\ArrayClass&#45;&gt;\\ArrayAccess -->
<g id="edge1" class="edge"><title>\\ArrayClass&#45;&gt;\\ArrayAccess</title>
<path fill="none" stroke="black" stroke-dasharray="1,5" d="M223.03,-802.566C210.6,-806.736 197.042,-811.684 184.889,-817 154.382,-830.344 121.297,-848.516 97.0641,-862.568"/>
<polygon fill="none" stroke="black" points="95.0984,-859.663 88.234,-867.734 98.6329,-865.706 95.0984,-859.663"/>
</g>
<!-- \\Countable -->
<g id="node19" class="node"><title>\\Countable</title>
<ellipse fill="none" stroke="black" cx="60.4446" cy="-803" rx="50.0912" ry="18"/>
<text text-anchor="middle" x="60.4446" y="-799.3" font-family="Times New Roman,serif" font-size="14.00" fill="gray">\Countable</text>
</g>
<!-- \\ArrayClass&#45;&gt;\\Countable -->
<g id="edge2" class="edge"><title>\\ArrayClass&#45;&gt;\\Countable</title>
<path fill="none" stroke="black" stroke-dasharray="1,5" d="M223.32,-792.631C193.616,-794.534 153.053,-797.132 119.963,-799.251"/>
<polygon fill="none" stroke="black" points="119.71,-795.76 109.954,-799.893 120.157,-802.746 119.71,-795.76"/>
</g>
<!-- \\Autoload -->
<g id="node2" class="node"><title>\\Autoload</title>
<polygon fill="none" stroke="black" points="300.889,-862 229.889,-862 229.889,-826 300.889,-826 300.889,-862"/>
<text text-anchor="middle" x="265.389" y="-841.2" font-family="Courier,monospace" font-size="11.00">Autoload</text>
</g>
<!-- \\AutoloadException -->
<g id="node3" class="node"><title>\\AutoloadException</title>
<polygon fill="none" stroke="black" points="330.889,-160 199.889,-160 199.889,-124 330.889,-124 330.889,-160"/>
<text text-anchor="middle" x="265.389" y="-139.2" font-family="Courier,monospace" font-size="11.00">AutoloadException</text>
</g>
<!-- \\Exception -->
<g id="node20" class="node"><title>\\Exception</title>
<ellipse fill="none" stroke="black" cx="60.4446" cy="-169" rx="50.0912" ry="18"/>
<text text-anchor="middle" x="60.4446" y="-165.3" font-family="Times New Roman,serif" font-size="14.00" fill="gray">\Exception</text>
</g>
<!-- \\AutoloadException&#45;&gt;\\Exception -->
<g id="edge3" class="edge"><title>\\AutoloadException&#45;&gt;\\Exception</title>
<path fill="none" stroke="black" d="M199.618,-150.617C173.314,-154.117 143.207,-158.122 117.825,-161.499"/>
<polygon fill="none" stroke="black" points="117.076,-158.068 107.625,-162.856 117.999,-165.007 117.076,-158.068"/>
</g>
<!-- \\Cache -->
<g id="node4" class="node"><title>\\Cache</title>
<polygon fill="none" stroke="black" points="292.389,-754 238.389,-754 238.389,-718 292.389,-718 292.389,-754"/>
<text text-anchor="middle" x="265.389" y="-733.2" font-family="Courier,monospace" font-size="11.00">Cache</text>
</g>
<!-- \\Controller -->
<g id="node5" class="node"><title>\\Controller</title>
<polygon fill="none" stroke="black" points="307.389,-700 223.389,-700 223.389,-664 307.389,-664 307.389,-700"/>
<text text-anchor="middle" x="265.389" y="-679.2" font-family="Courier,monospace" font-size="11.00">Controller</text>
</g>
<!-- \\ControllerException -->
<g id="node6" class="node"><title>\\ControllerException</title>
<polygon fill="none" stroke="black" points="337.889,-52 192.889,-52 192.889,-16 337.889,-16 337.889,-52"/>
<text text-anchor="middle" x="265.389" y="-31.2" font-family="Courier,monospace" font-size="11.00">ControllerException</text>
</g>
<!-- \\ControllerException&#45;&gt;\\Exception -->
<g id="edge4" class="edge"><title>\\ControllerException&#45;&gt;\\Exception</title>
<path fill="none" stroke="black" d="M202.976,-52.1124C196.713,-54.7642 190.572,-57.7233 184.889,-61 145.491,-83.7196 107.204,-120.128 83.9766,-144.301"/>
<polygon fill="none" stroke="black" points="81.3171,-142.019 76.9822,-151.686 86.3997,-146.832 81.3171,-142.019"/>
</g>
<!-- \\Cookie -->
<g id="node7" class="node"><title>\\Cookie</title>
<polygon fill="none" stroke="black" points="293.889,-592 236.889,-592 236.889,-556 293.889,-556 293.889,-592"/>
<text text-anchor="middle" x="265.389" y="-571.2" font-family="Courier,monospace" font-size="11.00">Cookie</text>
</g>
<!-- \\Database -->
<g id="node8" class="node"><title>\\Database</title>
<polygon fill="none" stroke="black" points="300.889,-538 229.889,-538 229.889,-502 300.889,-502 300.889,-538"/>
<text text-anchor="middle" x="265.389" y="-517.2" font-family="Courier,monospace" font-size="11.00">Database</text>
</g>
<!-- \\DB -->
<g id="node9" class="node"><title>\\DB</title>
<polygon fill="none" stroke="black" points="292.389,-484 238.389,-484 238.389,-448 292.389,-448 292.389,-484"/>
<text text-anchor="middle" x="265.389" y="-463.2" font-family="Courier,monospace" font-size="11.00">DB</text>
</g>
<!-- \\Enum -->
<g id="node10" class="node"><title>\\Enum</title>
<polygon fill="none" stroke="black" points="307.389,-430 223.389,-430 223.389,-394 307.389,-394 307.389,-430"/>
<text text-anchor="start" x="231.389" y="-415.2" font-family="Courier,monospace" font-size="11.00">«abstract»</text>
<text text-anchor="start" x="251.389" y="-403.2" font-family="Courier,monospace" font-size="11.00">Enum</text>
</g>
<!-- \\fake -->
<g id="node11" class="node"><title>\\fake</title>
<polygon fill="none" stroke="black" points="292.389,-376 238.389,-376 238.389,-340 292.389,-340 292.389,-376"/>
<text text-anchor="middle" x="265.389" y="-355.2" font-family="Courier,monospace" font-size="11.00">fake</text>
</g>
<!-- \\Profiler -->
<g id="node12" class="node"><title>\\Profiler</title>
<polygon fill="none" stroke="black" points="300.889,-322 229.889,-322 229.889,-286 300.889,-286 300.889,-322"/>
<text text-anchor="middle" x="265.389" y="-301.2" font-family="Courier,monospace" font-size="11.00">Profiler</text>
</g>
<!-- \\Router -->
<g id="node13" class="node"><title>\\Router</title>
<polygon fill="none" stroke="black" points="293.889,-268 236.889,-268 236.889,-232 293.889,-232 293.889,-268"/>
<text text-anchor="middle" x="265.389" y="-247.2" font-family="Courier,monospace" font-size="11.00">Router</text>
</g>
<!-- \\RouterException -->
<g id="node14" class="node"><title>\\RouterException</title>
<polygon fill="none" stroke="black" points="324.389,-646 206.389,-646 206.389,-610 324.389,-610 324.389,-646"/>
<text text-anchor="middle" x="265.389" y="-625.2" font-family="Courier,monospace" font-size="11.00">RouterException</text>
</g>
<!-- \\RouterException&#45;&gt;\\Exception -->
<g id="edge5" class="edge"><title>\\RouterException&#45;&gt;\\Exception</title>
<path fill="none" stroke="black" d="M206.146,-615.706C198.239,-612.02 190.819,-607.228 184.889,-601 73.3882,-483.889 61.5218,-273.163 61.0419,-197.234"/>
<polygon fill="none" stroke="black" points="64.5418,-197.037 61.0432,-187.036 57.5418,-197.036 64.5418,-197.037"/>
</g>
<!-- \\Session -->
<g id="node15" class="node"><title>\\Session</title>
<polygon fill="none" stroke="black" points="297.389,-916 233.389,-916 233.389,-880 297.389,-880 297.389,-916"/>
<text text-anchor="middle" x="265.389" y="-895.2" font-family="Courier,monospace" font-size="11.00">Session</text>
</g>
<!-- \\Session&#45;&gt;\\ArrayAccess -->
<g id="edge6" class="edge"><title>\\Session&#45;&gt;\\ArrayAccess</title>
<path fill="none" stroke="black" stroke-dasharray="1,5" d="M233.124,-895.843C205.699,-893.951 164.855,-891.134 129.886,-888.721"/>
<polygon fill="none" stroke="black" points="129.938,-885.217 119.72,-888.02 129.456,-892.2 129.938,-885.217"/>
</g>
<!-- \\Session&#45;&gt;\\Countable -->
<g id="edge7" class="edge"><title>\\Session&#45;&gt;\\Countable</title>
<path fill="none" stroke="black" stroke-dasharray="1,5" d="M233.328,-888.852C218.44,-884.114 200.493,-877.883 184.889,-871 153.724,-857.252 119.949,-838.347 95.6184,-823.96"/>
<polygon fill="none" stroke="black" points="97.1621,-820.805 86.7812,-818.687 93.5754,-826.817 97.1621,-820.805"/>
</g>
<!-- \\View -->
<g id="node16" class="node"><title>\\View</title>
<polygon fill="none" stroke="black" points="292.389,-106 238.389,-106 238.389,-70 292.389,-70 292.389,-106"/>
<text text-anchor="middle" x="265.389" y="-85.2" font-family="Courier,monospace" font-size="11.00">View</text>
</g>
<!-- \\ViewException -->
<g id="node17" class="node"><title>\\ViewException</title>
<polygon fill="none" stroke="black" points="317.389,-214 213.389,-214 213.389,-178 317.389,-178 317.389,-214"/>
<text text-anchor="middle" x="265.389" y="-193.2" font-family="Courier,monospace" font-size="11.00">ViewException</text>
</g>
<!-- \\ViewException&#45;&gt;\\Exception -->
<g id="edge8" class="edge"><title>\\ViewException&#45;&gt;\\Exception</title>
<path fill="none" stroke="black" d="M213.178,-189.187C184.187,-185.33 147.874,-180.499 118.041,-176.53"/>
<polygon fill="none" stroke="black" points="118.156,-173.014 107.782,-175.165 117.233,-179.953 118.156,-173.014"/>
</g>
</g>
</svg>
