<?xml version="1.0" encoding="UTF-8" standalone="no"?>
<!DOCTYPE svg PUBLIC "-//W3C//DTD SVG 1.1//EN"
 "http://www.w3.org/Graphics/SVG/1.1/DTD/svg11.dtd">
<!-- Generated by graphviz version 2.38.0 (20140413.2041)
 -->
<!-- Title: G Pages: 1 -->
<svg width="362pt" height="852pt"
 viewBox="0.00 0.00 361.89 852.00" xmlns="http://www.w3.org/2000/svg" xmlns:xlink="http://www.w3.org/1999/xlink">
<g id="graph0" class="graph" transform="scale(1 1) rotate(0) translate(4 848)">
<title>G</title>
<polygon fill="white" stroke="none" points="-4,4 -4,-848 357.889,-848 357.889,4 -4,4"/>
<g id="clust1" class="cluster"><title>cluster_Global</title>
<path fill="none" stroke="gray" d="M196.889,-8C196.889,-8 333.889,-8 333.889,-8 339.889,-8 345.889,-14 345.889,-20 345.889,-20 345.889,-824 345.889,-824 345.889,-830 339.889,-836 333.889,-836 333.889,-836 196.889,-836 196.889,-836 190.889,-836 184.889,-830 184.889,-824 184.889,-824 184.889,-20 184.889,-20 184.889,-14 190.889,-8 196.889,-8"/>
<text text-anchor="middle" x="265.389" y="-823.2" font-family="Times New Roman,serif" font-size="11.00" fill="gray">Global</text>
</g>
<!-- \\ArrayClass -->
<g id="node1" class="node"><title>\\ArrayClass</title>
<polygon fill="none" stroke="black" points="307.389,-700 223.389,-700 223.389,-664 307.389,-664 307.389,-700"/>
<text text-anchor="middle" x="265.389" y="-679.2" font-family="Courier,monospace" font-size="11.00">ArrayClass</text>
</g>
<!-- \\ArrayAccess -->
<g id="node16" class="node"><title>\\ArrayAccess</title>
<ellipse fill="none" stroke="black" cx="60.4446" cy="-776" rx="60.3893" ry="18"/>
<text text-anchor="middle" x="60.4446" y="-772.3" font-family="Times New Roman,serif" font-size="14.00" fill="gray">\ArrayAccess</text>
</g>
<!-- \\ArrayClass&#45;&gt;\\ArrayAccess -->
<g id="edge1" class="edge"><title>\\ArrayClass&#45;&gt;\\ArrayAccess</title>
<path fill="none" stroke="black" stroke-dasharray="1,5" d="M223.03,-694.566C210.6,-698.736 197.042,-703.684 184.889,-709 154.382,-722.344 121.297,-740.516 97.0641,-754.568"/>
<polygon fill="none" stroke="black" points="95.0984,-751.663 88.234,-759.734 98.6329,-757.706 95.0984,-751.663"/>
</g>
<!-- \\Countable -->
<g id="node17" class="node"><title>\\Countable</title>
<ellipse fill="none" stroke="black" cx="60.4446" cy="-695" rx="50.0912" ry="18"/>
<text text-anchor="middle" x="60.4446" y="-691.3" font-family="Times New Roman,serif" font-size="14.00" fill="gray">\Countable</text>
</g>
<!-- \\ArrayClass&#45;&gt;\\Countable -->
<g id="edge2" class="edge"><title>\\ArrayClass&#45;&gt;\\Countable</title>
<path fill="none" stroke="black" stroke-dasharray="1,5" d="M223.32,-684.631C193.616,-686.534 153.053,-689.132 119.963,-691.251"/>
<polygon fill="none" stroke="black" points="119.71,-687.76 109.954,-691.893 120.157,-694.746 119.71,-687.76"/>
</g>
<!-- \\Autoload -->
<g id="node2" class="node"><title>\\Autoload</title>
<polygon fill="none" stroke="black" points="300.889,-754 229.889,-754 229.889,-718 300.889,-718 300.889,-754"/>
<text text-anchor="middle" x="265.389" y="-733.2" font-family="Courier,monospace" font-size="11.00">Autoload</text>
</g>
<!-- \\AutoloadException -->
<g id="node3" class="node"><title>\\AutoloadException</title>
<polygon fill="none" stroke="black" points="330.889,-592 199.889,-592 199.889,-556 330.889,-556 330.889,-592"/>
<text text-anchor="middle" x="265.389" y="-571.2" font-family="Courier,monospace" font-size="11.00">AutoloadException</text>
</g>
<!-- \\Exception -->
<g id="node18" class="node"><title>\\Exception</title>
<ellipse fill="none" stroke="black" cx="60.4446" cy="-169" rx="50.0912" ry="18"/>
<text text-anchor="middle" x="60.4446" y="-165.3" font-family="Times New Roman,serif" font-size="14.00" fill="gray">\Exception</text>
</g>
<!-- \\AutoloadException&#45;&gt;\\Exception -->
<g id="edge3" class="edge"><title>\\AutoloadException&#45;&gt;\\Exception</title>
<path fill="none" stroke="black" d="M199.628,-558.07C194.224,-555.007 189.193,-551.354 184.889,-547 86.0823,-447.026 66.3588,-266.968 62.4241,-197.455"/>
<polygon fill="none" stroke="black" points="65.9104,-197.091 61.9185,-187.277 58.9191,-197.438 65.9104,-197.091"/>
</g>
<!-- \\Controller -->
<g id="node4" class="node"><title>\\Controller</title>
<polygon fill="none" stroke="black" points="307.389,-646 223.389,-646 223.389,-610 307.389,-610 307.389,-646"/>
<text text-anchor="middle" x="265.389" y="-625.2" font-family="Courier,monospace" font-size="11.00">Controller</text>
</g>
<!-- \\ControllerException -->
<g id="node5" class="node"><title>\\ControllerException</title>
<polygon fill="none" stroke="black" points="337.889,-214 192.889,-214 192.889,-178 337.889,-178 337.889,-214"/>
<text text-anchor="middle" x="265.389" y="-193.2" font-family="Courier,monospace" font-size="11.00">ControllerException</text>
</g>
<!-- \\ControllerException&#45;&gt;\\Exception -->
<g id="edge4" class="edge"><title>\\ControllerException&#45;&gt;\\Exception</title>
<path fill="none" stroke="black" d="M192.839,-186.481C168.185,-183.201 140.944,-179.577 117.688,-176.483"/>
<polygon fill="none" stroke="black" points="118.021,-172.996 107.647,-175.147 117.098,-179.935 118.021,-172.996"/>
</g>
<!-- \\Cookie -->
<g id="node6" class="node"><title>\\Cookie</title>
<polygon fill="none" stroke="black" points="293.889,-538 236.889,-538 236.889,-502 293.889,-502 293.889,-538"/>
<text text-anchor="middle" x="265.389" y="-517.2" font-family="Courier,monospace" font-size="11.00">Cookie</text>
</g>
<!-- \\Database -->
<g id="node7" class="node"><title>\\Database</title>
<polygon fill="none" stroke="black" points="300.889,-484 229.889,-484 229.889,-448 300.889,-448 300.889,-484"/>
<text text-anchor="middle" x="265.389" y="-463.2" font-family="Courier,monospace" font-size="11.00">Database</text>
</g>
<!-- \\DB -->
<g id="node8" class="node"><title>\\DB</title>
<polygon fill="none" stroke="black" points="292.389,-430 238.389,-430 238.389,-394 292.389,-394 292.389,-430"/>
<text text-anchor="middle" x="265.389" y="-409.2" font-family="Courier,monospace" font-size="11.00">DB</text>
</g>
<!-- \\Enum -->
<g id="node9" class="node"><title>\\Enum</title>
<polygon fill="none" stroke="black" points="307.389,-376 223.389,-376 223.389,-340 307.389,-340 307.389,-376"/>
<text text-anchor="start" x="231.389" y="-361.2" font-family="Courier,monospace" font-size="11.00">«abstract»</text>
<text text-anchor="start" x="251.389" y="-349.2" font-family="Courier,monospace" font-size="11.00">Enum</text>
</g>
<!-- \\Profiler -->
<g id="node10" class="node"><title>\\Profiler</title>
<polygon fill="none" stroke="black" points="300.889,-322 229.889,-322 229.889,-286 300.889,-286 300.889,-322"/>
<text text-anchor="middle" x="265.389" y="-301.2" font-family="Courier,monospace" font-size="11.00">Profiler</text>
</g>
<!-- \\Router -->
<g id="node11" class="node"><title>\\Router</title>
<polygon fill="none" stroke="black" points="293.889,-268 236.889,-268 236.889,-232 293.889,-232 293.889,-268"/>
<text text-anchor="middle" x="265.389" y="-247.2" font-family="Courier,monospace" font-size="11.00">Router</text>
</g>
<!-- \\RouterException -->
<g id="node12" class="node"><title>\\RouterException</title>
<polygon fill="none" stroke="black" points="324.389,-160 206.389,-160 206.389,-124 324.389,-124 324.389,-160"/>
<text text-anchor="middle" x="265.389" y="-139.2" font-family="Courier,monospace" font-size="11.00">RouterException</text>
</g>
<!-- \\RouterException&#45;&gt;\\Exception -->
<g id="edge5" class="edge"><title>\\RouterException&#45;&gt;\\Exception</title>
<path fill="none" stroke="black" d="M206.233,-149.737C178.503,-153.426 145.459,-157.823 117.945,-161.483"/>
<polygon fill="none" stroke="black" points="117.144,-158.059 107.693,-162.847 118.068,-164.998 117.144,-158.059"/>
</g>
<!-- \\Session -->
<g id="node13" class="node"><title>\\Session</title>
<polygon fill="none" stroke="black" points="297.389,-808 233.389,-808 233.389,-772 297.389,-772 297.389,-808"/>
<text text-anchor="middle" x="265.389" y="-787.2" font-family="Courier,monospace" font-size="11.00">Session</text>
</g>
<!-- \\Session&#45;&gt;\\ArrayAccess -->
<g id="edge6" class="edge"><title>\\Session&#45;&gt;\\ArrayAccess</title>
<path fill="none" stroke="black" stroke-dasharray="1,5" d="M233.124,-787.843C205.699,-785.951 164.855,-783.134 129.886,-780.721"/>
<polygon fill="none" stroke="black" points="129.938,-777.217 119.72,-780.02 129.456,-784.2 129.938,-777.217"/>
</g>
<!-- \\Session&#45;&gt;\\Countable -->
<g id="edge7" class="edge"><title>\\Session&#45;&gt;\\Countable</title>
<path fill="none" stroke="black" stroke-dasharray="1,5" d="M233.328,-780.852C218.44,-776.114 200.493,-769.883 184.889,-763 153.724,-749.252 119.949,-730.347 95.6184,-715.96"/>
<polygon fill="none" stroke="black" points="97.1621,-712.805 86.7812,-710.687 93.5754,-718.817 97.1621,-712.805"/>
</g>
<!-- \\View -->
<g id="node14" class="node"><title>\\View</title>
<polygon fill="none" stroke="black" points="292.389,-106 238.389,-106 238.389,-70 292.389,-70 292.389,-106"/>
<text text-anchor="middle" x="265.389" y="-85.2" font-family="Courier,monospace" font-size="11.00">View</text>
</g>
<!-- \\ViewException -->
<g id="node15" class="node"><title>\\ViewException</title>
<polygon fill="none" stroke="black" points="317.389,-52 213.389,-52 213.389,-16 317.389,-16 317.389,-52"/>
<text text-anchor="middle" x="265.389" y="-31.2" font-family="Courier,monospace" font-size="11.00">ViewException</text>
</g>
<!-- \\ViewException&#45;&gt;\\Exception -->
<g id="edge8" class="edge"><title>\\ViewException&#45;&gt;\\Exception</title>
<path fill="none" stroke="black" d="M213.049,-48.1302C203.394,-51.6983 193.602,-55.9757 184.889,-61 145.491,-83.7196 107.204,-120.128 83.9766,-144.301"/>
<polygon fill="none" stroke="black" points="81.3171,-142.019 76.9822,-151.686 86.3997,-146.832 81.3171,-142.019"/>
</g>
</g>
</svg>
