<?xml version="1.0" encoding="UTF-8" standalone="no"?>
<!DOCTYPE svg PUBLIC "-//W3C//DTD SVG 1.1//EN"
 "http://www.w3.org/Graphics/SVG/1.1/DTD/svg11.dtd">
<!-- Generated by graphviz version 2.38.0 (20140413.2041)
 -->
<!-- Title: G Pages: 1 -->
<svg width="124pt" height="582pt"
 viewBox="0.00 0.00 124.00 582.00" xmlns="http://www.w3.org/2000/svg" xmlns:xlink="http://www.w3.org/1999/xlink">
<g id="graph0" class="graph" transform="scale(1 1) rotate(0) translate(4 578)">
<title>G</title>
<polygon fill="white" stroke="none" points="-4,4 -4,-578 120,-578 120,4 -4,4"/>
<g id="clust1" class="cluster"><title>cluster_Global</title>
<path fill="none" stroke="gray" d="M20,-8C20,-8 96,-8 96,-8 102,-8 108,-14 108,-20 108,-20 108,-554 108,-554 108,-560 102,-566 96,-566 96,-566 20,-566 20,-566 14,-566 8,-560 8,-554 8,-554 8,-20 8,-20 8,-14 14,-8 20,-8"/>
<text text-anchor="middle" x="58" y="-553.2" font-family="Times New Roman,serif" font-size="11.00" fill="gray">Global</text>
</g>
<!-- \\ArrayClass -->
<g id="node1" class="node"><title>\\ArrayClass</title>
<polygon fill="none" stroke="black" points="100,-538 16,-538 16,-502 100,-502 100,-538"/>
<text text-anchor="middle" x="58" y="-517.2" font-family="Courier,monospace" font-size="11.00">ArrayClass</text>
</g>
<!-- \\Autoload -->
<g id="node2" class="node"><title>\\Autoload</title>
<polygon fill="none" stroke="black" points="93.5,-484 22.5,-484 22.5,-448 93.5,-448 93.5,-484"/>
<text text-anchor="middle" x="58" y="-463.2" font-family="Courier,monospace" font-size="11.00">Autoload</text>
</g>
<!-- \\Controller -->
<g id="node3" class="node"><title>\\Controller</title>
<polygon fill="none" stroke="black" points="100,-430 16,-430 16,-394 100,-394 100,-430"/>
<text text-anchor="middle" x="58" y="-409.2" font-family="Courier,monospace" font-size="11.00">Controller</text>
</g>
<!-- \\Cookie -->
<g id="node4" class="node"><title>\\Cookie</title>
<polygon fill="none" stroke="black" points="86.5,-376 29.5,-376 29.5,-340 86.5,-340 86.5,-376"/>
<text text-anchor="middle" x="58" y="-355.2" font-family="Courier,monospace" font-size="11.00">Cookie</text>
</g>
<!-- \\Database -->
<g id="node5" class="node"><title>\\Database</title>
<polygon fill="none" stroke="black" points="93.5,-322 22.5,-322 22.5,-286 93.5,-286 93.5,-322"/>
<text text-anchor="middle" x="58" y="-301.2" font-family="Courier,monospace" font-size="11.00">Database</text>
</g>
<!-- \\DB -->
<g id="node6" class="node"><title>\\DB</title>
<polygon fill="none" stroke="black" points="85,-268 31,-268 31,-232 85,-232 85,-268"/>
<text text-anchor="middle" x="58" y="-247.2" font-family="Courier,monospace" font-size="11.00">DB</text>
</g>
<!-- \\Input -->
<g id="node7" class="node"><title>\\Input</title>
<polygon fill="none" stroke="black" points="85,-214 31,-214 31,-178 85,-178 85,-214"/>
<text text-anchor="middle" x="58" y="-193.2" font-family="Courier,monospace" font-size="11.00">Input</text>
</g>
<!-- \\Router -->
<g id="node8" class="node"><title>\\Router</title>
<polygon fill="none" stroke="black" points="86.5,-160 29.5,-160 29.5,-124 86.5,-124 86.5,-160"/>
<text text-anchor="middle" x="58" y="-139.2" font-family="Courier,monospace" font-size="11.00">Router</text>
</g>
<!-- \\Session -->
<g id="node9" class="node"><title>\\Session</title>
<polygon fill="none" stroke="black" points="90,-106 26,-106 26,-70 90,-70 90,-106"/>
<text text-anchor="middle" x="58" y="-85.2" font-family="Courier,monospace" font-size="11.00">Session</text>
</g>
<!-- \\View -->
<g id="node10" class="node"><title>\\View</title>
<polygon fill="none" stroke="black" points="85,-52 31,-52 31,-16 85,-16 85,-52"/>
<text text-anchor="middle" x="58" y="-31.2" font-family="Courier,monospace" font-size="11.00">View</text>
</g>
</g>
</svg>
