<?xml version="1.0" encoding="UTF-8" standalone="no"?>
<!DOCTYPE svg PUBLIC "-//W3C//DTD SVG 1.1//EN"
 "http://www.w3.org/Graphics/SVG/1.1/DTD/svg11.dtd">
<!-- Generated by graphviz version 2.38.0 (20140413.2041)
 -->
<!-- Title: G Pages: 1 -->
<svg width="362pt" height="798pt"
 viewBox="0.00 0.00 361.89 798.00" xmlns="http://www.w3.org/2000/svg" xmlns:xlink="http://www.w3.org/1999/xlink">
<g id="graph0" class="graph" transform="scale(1 1) rotate(0) translate(4 794)">
<title>G</title>
<polygon fill="white" stroke="none" points="-4,4 -4,-794 357.889,-794 357.889,4 -4,4"/>
<g id="clust1" class="cluster"><title>cluster_Global</title>
<path fill="none" stroke="gray" d="M196.889,-8C196.889,-8 333.889,-8 333.889,-8 339.889,-8 345.889,-14 345.889,-20 345.889,-20 345.889,-770 345.889,-770 345.889,-776 339.889,-782 333.889,-782 333.889,-782 196.889,-782 196.889,-782 190.889,-782 184.889,-776 184.889,-770 184.889,-770 184.889,-20 184.889,-20 184.889,-14 190.889,-8 196.889,-8"/>
<text text-anchor="middle" x="265.389" y="-769.2" font-family="Times New Roman,serif" font-size="11.00" fill="gray">Global</text>
</g>
<!-- \\ArrayClass -->
<g id="node1" class="node"><title>\\ArrayClass</title>
<polygon fill="none" stroke="black" points="307.389,-754 223.389,-754 223.389,-718 307.389,-718 307.389,-754"/>
<text text-anchor="middle" x="265.389" y="-733.2" font-family="Courier,monospace" font-size="11.00">ArrayClass</text>
</g>
<!-- \\ArrayAccess -->
<g id="node15" class="node"><title>\\ArrayAccess</title>
<ellipse fill="none" stroke="black" cx="60.4446" cy="-722" rx="60.3893" ry="18"/>
<text text-anchor="middle" x="60.4446" y="-718.3" font-family="Times New Roman,serif" font-size="14.00" fill="gray">\ArrayAccess</text>
</g>
<!-- \\ArrayClass&#45;&gt;\\ArrayAccess -->
<g id="edge1" class="edge"><title>\\ArrayClass&#45;&gt;\\ArrayAccess</title>
<path fill="none" stroke="black" stroke-dasharray="1,5" d="M223.32,-733.167C196.577,-731.322 161.033,-728.87 130.065,-726.734"/>
<polygon fill="none" stroke="black" points="129.975,-723.219 119.758,-726.023 129.493,-730.203 129.975,-723.219"/>
</g>
<!-- \\Countable -->
<g id="node16" class="node"><title>\\Countable</title>
<ellipse fill="none" stroke="black" cx="60.4446" cy="-641" rx="50.0912" ry="18"/>
<text text-anchor="middle" x="60.4446" y="-637.3" font-family="Times New Roman,serif" font-size="14.00" fill="gray">\Countable</text>
</g>
<!-- \\ArrayClass&#45;&gt;\\Countable -->
<g id="edge2" class="edge"><title>\\ArrayClass&#45;&gt;\\Countable</title>
<path fill="none" stroke="black" stroke-dasharray="1,5" d="M223.009,-723.481C210.579,-719.313 197.025,-714.354 184.889,-709 153.724,-695.252 119.949,-676.347 95.6184,-661.96"/>
<polygon fill="none" stroke="black" points="97.1621,-658.805 86.7812,-656.687 93.5754,-664.817 97.1621,-658.805"/>
</g>
<!-- \\Autoload -->
<g id="node2" class="node"><title>\\Autoload</title>
<polygon fill="none" stroke="black" points="300.889,-700 229.889,-700 229.889,-664 300.889,-664 300.889,-700"/>
<text text-anchor="middle" x="265.389" y="-679.2" font-family="Courier,monospace" font-size="11.00">Autoload</text>
</g>
<!-- \\AutoloadException -->
<g id="node3" class="node"><title>\\AutoloadException</title>
<polygon fill="none" stroke="black" points="330.889,-214 199.889,-214 199.889,-178 330.889,-178 330.889,-214"/>
<text text-anchor="middle" x="265.389" y="-193.2" font-family="Courier,monospace" font-size="11.00">AutoloadException</text>
</g>
<!-- \\Exception -->
<g id="node17" class="node"><title>\\Exception</title>
<ellipse fill="none" stroke="black" cx="60.4446" cy="-169" rx="50.0912" ry="18"/>
<text text-anchor="middle" x="60.4446" y="-165.3" font-family="Times New Roman,serif" font-size="14.00" fill="gray">\Exception</text>
</g>
<!-- \\AutoloadException&#45;&gt;\\Exception -->
<g id="edge3" class="edge"><title>\\AutoloadException&#45;&gt;\\Exception</title>
<path fill="none" stroke="black" d="M199.618,-187.383C173.314,-183.883 143.207,-179.878 117.825,-176.501"/>
<polygon fill="none" stroke="black" points="117.999,-172.993 107.625,-175.144 117.076,-179.932 117.999,-172.993"/>
</g>
<!-- \\Controller -->
<g id="node4" class="node"><title>\\Controller</title>
<polygon fill="none" stroke="black" points="307.389,-592 223.389,-592 223.389,-556 307.389,-556 307.389,-592"/>
<text text-anchor="middle" x="265.389" y="-571.2" font-family="Courier,monospace" font-size="11.00">Controller</text>
</g>
<!-- \\ControllerException -->
<g id="node5" class="node"><title>\\ControllerException</title>
<polygon fill="none" stroke="black" points="337.889,-160 192.889,-160 192.889,-124 337.889,-124 337.889,-160"/>
<text text-anchor="middle" x="265.389" y="-139.2" font-family="Courier,monospace" font-size="11.00">ControllerException</text>
</g>
<!-- \\ControllerException&#45;&gt;\\Exception -->
<g id="edge4" class="edge"><title>\\ControllerException&#45;&gt;\\Exception</title>
<path fill="none" stroke="black" d="M192.839,-151.519C168.185,-154.799 140.944,-158.423 117.688,-161.517"/>
<polygon fill="none" stroke="black" points="117.098,-158.065 107.647,-162.853 118.021,-165.004 117.098,-158.065"/>
</g>
<!-- \\Cookie -->
<g id="node6" class="node"><title>\\Cookie</title>
<polygon fill="none" stroke="black" points="293.889,-484 236.889,-484 236.889,-448 293.889,-448 293.889,-484"/>
<text text-anchor="middle" x="265.389" y="-463.2" font-family="Courier,monospace" font-size="11.00">Cookie</text>
</g>
<!-- \\Database -->
<g id="node7" class="node"><title>\\Database</title>
<polygon fill="none" stroke="black" points="300.889,-430 229.889,-430 229.889,-394 300.889,-394 300.889,-430"/>
<text text-anchor="middle" x="265.389" y="-409.2" font-family="Courier,monospace" font-size="11.00">Database</text>
</g>
<!-- \\DB -->
<g id="node8" class="node"><title>\\DB</title>
<polygon fill="none" stroke="black" points="292.389,-376 238.389,-376 238.389,-340 292.389,-340 292.389,-376"/>
<text text-anchor="middle" x="265.389" y="-355.2" font-family="Courier,monospace" font-size="11.00">DB</text>
</g>
<!-- \\Input -->
<g id="node9" class="node"><title>\\Input</title>
<polygon fill="none" stroke="black" points="292.389,-322 238.389,-322 238.389,-286 292.389,-286 292.389,-322"/>
<text text-anchor="middle" x="265.389" y="-301.2" font-family="Courier,monospace" font-size="11.00">Input</text>
</g>
<!-- \\Router -->
<g id="node10" class="node"><title>\\Router</title>
<polygon fill="none" stroke="black" points="293.889,-268 236.889,-268 236.889,-232 293.889,-232 293.889,-268"/>
<text text-anchor="middle" x="265.389" y="-247.2" font-family="Courier,monospace" font-size="11.00">Router</text>
</g>
<!-- \\RouterException -->
<g id="node11" class="node"><title>\\RouterException</title>
<polygon fill="none" stroke="black" points="324.389,-52 206.389,-52 206.389,-16 324.389,-16 324.389,-52"/>
<text text-anchor="middle" x="265.389" y="-31.2" font-family="Courier,monospace" font-size="11.00">RouterException</text>
</g>
<!-- \\RouterException&#45;&gt;\\Exception -->
<g id="edge5" class="edge"><title>\\RouterException&#45;&gt;\\Exception</title>
<path fill="none" stroke="black" d="M206.326,-50.7272C198.911,-53.7221 191.582,-57.1407 184.889,-61 145.491,-83.7196 107.204,-120.128 83.9766,-144.301"/>
<polygon fill="none" stroke="black" points="81.3171,-142.019 76.9822,-151.686 86.3997,-146.832 81.3171,-142.019"/>
</g>
<!-- \\Session -->
<g id="node12" class="node"><title>\\Session</title>
<polygon fill="none" stroke="black" points="297.389,-646 233.389,-646 233.389,-610 297.389,-610 297.389,-646"/>
<text text-anchor="middle" x="265.389" y="-625.2" font-family="Courier,monospace" font-size="11.00">Session</text>
</g>
<!-- \\Session&#45;&gt;\\ArrayAccess -->
<g id="edge6" class="edge"><title>\\Session&#45;&gt;\\ArrayAccess</title>
<path fill="none" stroke="black" stroke-dasharray="1,5" d="M233.347,-637.191C218.463,-641.939 200.514,-648.166 184.889,-655 154.382,-668.344 121.297,-686.516 97.0641,-700.568"/>
<polygon fill="none" stroke="black" points="95.0984,-697.663 88.234,-705.734 98.6329,-703.706 95.0984,-697.663"/>
</g>
<!-- \\Session&#45;&gt;\\Countable -->
<g id="edge7" class="edge"><title>\\Session&#45;&gt;\\Countable</title>
<path fill="none" stroke="black" stroke-dasharray="1,5" d="M233.124,-630.003C203.041,-631.93 156.811,-634.891 119.899,-637.256"/>
<polygon fill="none" stroke="black" points="119.513,-633.773 109.757,-637.905 119.96,-640.759 119.513,-633.773"/>
</g>
<!-- \\View -->
<g id="node13" class="node"><title>\\View</title>
<polygon fill="none" stroke="black" points="292.389,-106 238.389,-106 238.389,-70 292.389,-70 292.389,-106"/>
<text text-anchor="middle" x="265.389" y="-85.2" font-family="Courier,monospace" font-size="11.00">View</text>
</g>
<!-- \\ViewException -->
<g id="node14" class="node"><title>\\ViewException</title>
<polygon fill="none" stroke="black" points="317.389,-538 213.389,-538 213.389,-502 317.389,-502 317.389,-538"/>
<text text-anchor="middle" x="265.389" y="-517.2" font-family="Courier,monospace" font-size="11.00">ViewException</text>
</g>
<!-- \\ViewException&#45;&gt;\\Exception -->
<g id="edge8" class="edge"><title>\\ViewException&#45;&gt;\\Exception</title>
<path fill="none" stroke="black" d="M213.165,-509.973C202.842,-506.047 192.76,-500.587 184.889,-493 98.6293,-409.843 71.8799,-260.123 64.2473,-197.624"/>
<polygon fill="none" stroke="black" points="67.6851,-196.88 63.0705,-187.343 60.7305,-197.676 67.6851,-196.88"/>
</g>
</g>
</svg>
